<svg xmlns:xlink="http://www.w3.org/1999/xlink" xmlns="http://www.w3.org/2000/svg" viewBox="0 0 410.15384615384613 78" preserveAspectRatio="xMidYMid meet" class="css-18yrpox" id="cffbfcbe" width="410.15384615384613"  height="78" ><defs id="SvgjsDefs1542"></defs><g id="SvgjsG1543" featurekey="symbolContainer" transform="matrix(1,0,0,1,0,0)" fill="#FD7014"><rect width="94" height="78" rx="8" fill="#FD7014"></rect></g><g id="SvgjsG1544" featurekey="symbolFeature-0" transform="matrix(0.86848635235732,0,0,0.86848635235732,19.56575682382134,11.52605459057072)" fill="#FFFFFF"><g xmlns="http://www.w3.org/2000/svg" fill="#FFFFFF"><path d="M57.5,22.3c-0.3-4.8-4.1-8.7-8.9-9.3C46.6,7.6,41.4,4,35.5,4C30.1,4,25.3,7,23,11.7C16.2,7.5,3.3,11.1,3.5,23.8   c-1.9,1.9-3,4.5-3,7.2c0,5.5,4.5,10,10,10h3v-2h-3c-4.4,0-8-3.6-8-8c0-4.1,3.1-6.3,3.1-6.3c-1.5-9.6,9.7-16.8,18.3-9.9   c0,0,2.4-8.8,11.6-8.8c9.3,0,11.6,9,11.6,9c3.2-0.3,8.6,2.3,8.4,8.6c0,0,5,2,5,7.4c0,4.4-3.6,8-8,8h-4v2h4c5.5,0,10-4.5,10-10   C62.5,27.4,60.6,24.1,57.5,22.3z" fill="#FFFFFF"></path><path d="M7.5,23h2c0-3.9,3.1-7,7-7v-2C11.5,14,7.5,18,7.5,23z" fill="#FFFFFF"></path><path d="M51.5,22h-7.9l-1.3,10.2h-3.8v2h3.6L40.5,47H18.4l-1.8-14h1.9v-2h-4.1l2.3,18h23.6l-0.6,5h-2.3c-0.4-1.7-2-3-3.9-3   s-3.4,1.3-3.9,3h-2.3c-0.4-1.7-2-3-3.9-3s-3.4,1.3-3.9,3h-3.1v2h3.1c0.4,1.7,2,3,3.9,3s3.4-1.3,3.9-3h2.3c0.4,1.7,2,3,3.9,3   s3.4-1.3,3.9-3h4l4-32h6.1V22z M23.5,57c-1.1,0-2-0.9-2-2s0.9-2,2-2s2,0.9,2,2S24.6,57,23.5,57z M33.5,57c-1.1,0-2-0.9-2-2   s0.9-2,2-2s2,0.9,2,2S34.6,57,33.5,57z" fill="#FFFFFF"></path><rect x="19.5" y="28" width="2" height="8" fill="#FFFFFF"></rect><rect x="23.5" y="23" width="2" height="13" fill="#FFFFFF"></rect><rect x="27.5" y="26" width="2" height="10" fill="#FFFFFF"></rect><rect x="31.5" y="20" width="2" height="16" fill="#FFFFFF"></rect><rect x="35.5" y="17" width="2" height="19" fill="#FFFFFF"></rect></g></g><g id="SvgjsG1545" featurekey="nameFeature-0" transform="matrix(1.9504335058962954,0,0,1.9504335058962954,108.8508697554323,-27.37662075438036)" fill="#393E46"><path d="M22.56 29.560000000000002 l-0.68 0.24 c-0.08 0 -0.16 0 -0.24 0.04 c-0.12 0.04 -0.16 0.08 -0.2 0.16 l-0.16 0.28 l-0.68 1.24 l-0.36 0.64 l-0.36 0.64 c-0.08 0.2 -0.16 0.4 -0.28 0.56 l-0.2 0.4 l-0.36 0.68 l-0.16 0.32 l-0.16 0.28 l-0.2 0.36 c0.04 0.08 -0.04 0.08 -0.08 0.16 c0 0.04 -0.04 0.12 -0.08 0.16 c-0.04 0.12 -0.12 0.24 -0.2 0.36 l-0.4 0.8 l-0.24 0.4 c-0.08 0.08 -0.08 0.2 -0.16 0.24 l-0.12 0.2 l-0.12 0.2 l-0.36 0.52 c-0.16 0.36 -0.36 0.68 -0.56 1 c-0.12 0.12 -0.2 0.28 -0.32 0.44 c-0.08 0.2 -0.2 0.36 -0.32 0.52 s-0.28 0.32 -0.36 0.48 l-0.08 0.12 c-0.12 0.16 -0.28 0.28 -0.4 0.48 l-0.24 0.28 l-0.24 0.28 l-0.4 0.44 c-0.04 0 -0.04 0.04 -0.08 0.04 c-0.16 0.2 -0.36 0.4 -0.56 0.56 l-0.88 0.72 c-0.2 0.16 -0.44 0.28 -0.68 0.4 c-0.24 0.16 -0.48 0.28 -0.76 0.36 l-0.56 0.24 c-0.12 0 -0.2 0.04 -0.28 0.04 c-0.12 0 -0.24 0.04 -0.32 0.08 l-0.08 0 c-0.36 0 -0.68 0.08 -1.04 0.12 c-0.16 0 -0.32 -0.04 -0.44 -0.04 l-0.28 0 c-0.16 0 -0.28 -0.04 -0.44 -0.08 c-0.28 -0.04 -0.52 -0.08 -0.8 -0.16 c-0.08 0 -0.2 -0.04 -0.28 -0.08 l-0.72 -0.32 c-0.28 -0.16 -0.52 -0.32 -0.76 -0.56 l-0.24 -0.24 c-0.04 -0.08 -0.12 -0.16 -0.2 -0.2 c-0.12 -0.12 -0.2 -0.28 -0.28 -0.36 c-0.04 -0.12 -0.12 -0.2 -0.2 -0.32 l-0.2 -0.48 l0 -0.04 c-0.04 -0.12 -0.04 -0.24 -0.04 -0.32 c0.04 -0.2 0.16 -0.32 0.32 -0.36 c0.24 -0.12 0.6 0 0.76 0.16 c0.2 0.12 0.32 0.28 0.48 0.48 c0.08 0.08 0.12 0.16 0.16 0.24 c0.04 0.12 0.16 0.24 0.2 0.36 l0.24 0.4 c0.08 0.2 0.2 0.36 0.32 0.52 l0.24 0.28 l0.16 0.16 c0.08 0.08 0.2 0.08 0.32 0.12 c0.04 0 0.08 0.04 0.16 0.04 c0.16 0.04 0.32 0.08 0.44 0.08 l0.48 0.08 l0.04 0 c0.24 0 0.48 0 0.72 -0.04 c0.12 0 0.28 0 0.4 -0.04 c0.2 -0.04 0.36 -0.08 0.56 -0.16 l0.36 -0.16 l0.4 -0.2 c0.16 -0.12 0.32 -0.24 0.48 -0.4 l0.4 -0.36 c0.12 -0.08 0.16 -0.16 0.24 -0.24 c0.16 -0.16 0.32 -0.36 0.52 -0.52 c0 -0.12 0.08 -0.16 0.12 -0.2 c0.12 -0.12 0.2 -0.24 0.28 -0.36 l0.48 -0.6 l0.4 -0.6 c0.12 -0.12 0.24 -0.28 0.28 -0.44 l0.12 -0.16 c0.16 -0.2 0.28 -0.44 0.44 -0.68 c0 0 0 -0.04 0.04 -0.08 c0 0 0.04 -0.04 0.04 -0.08 c0.08 -0.08 0.16 -0.2 0.2 -0.32 c0.2 -0.28 0.32 -0.56 0.48 -0.84 l0.16 -0.24 l0.64 -0.96 l0.16 -0.28 c-0.04 0.04 -0.08 0.08 -0.08 0.12 l-0.56 0.56 c-0.08 0.08 -0.2 0.16 -0.28 0.28 l-0.24 0.24 c-0.12 0.16 -0.32 0.28 -0.48 0.44 l-0.4 0.36 l-0.2 0.2 c-0.16 0.16 -0.4 0.28 -0.6 0.44 c-0.16 0.08 -0.32 0.2 -0.48 0.32 l-0.52 0.24 l-0.32 0.16 c-0.16 0.08 -0.32 0.16 -0.52 0.2 c-0.08 0 -0.12 0.08 -0.2 0.08 s-0.16 0.04 -0.2 0.04 c-0.08 0 -0.16 0.04 -0.2 0.04 c-0.08 0 -0.2 0.04 -0.28 0.04 s-0.2 0 -0.32 0.04 c-0.32 0.04 -0.68 0.04 -1 0.04 c-0.12 0 -0.24 0 -0.4 -0.04 c-0.16 0 -0.32 0 -0.48 -0.08 c-0.24 0 -0.48 -0.08 -0.68 -0.12 c-0.24 -0.04 -0.48 -0.12 -0.72 -0.2 c-0.04 0 -0.08 0 -0.12 -0.04 l-0.04 -0.04 c-0.08 0.04 -0.12 -0.04 -0.2 -0.04 l-0.32 -0.16 l-0.32 -0.16 l-0.32 -0.16 c-0.08 -0.08 -0.16 -0.16 -0.24 -0.2 l-0.12 -0.08 l-0.28 -0.24 c-0.08 -0.04 -0.2 -0.12 -0.24 -0.2 l-0.28 -0.28 l-0.32 -0.4 l-0.24 -0.36 l-0.4 -0.72 c-0.08 -0.16 -0.16 -0.32 -0.2 -0.48 c-0.08 -0.2 -0.12 -0.4 -0.2 -0.56 l-0.12 -0.52 c-0.04 -0.16 -0.08 -0.32 -0.08 -0.44 c-0.04 -0.04 -0.04 -0.04 -0.04 -0.08 c0 -0.12 0 -0.28 -0.04 -0.4 l0 -0.04 c0 -0.16 -0.04 -0.32 -0.04 -0.48 l0 -0.12 c0.04 -0.04 0 -0.08 0 -0.16 l0 -0.04 c0 -0.08 0.04 -0.12 0 -0.16 c0 -0.04 0.04 -0.12 0 -0.16 l0 -0.04 c0.04 -0.04 0 -0.08 0 -0.12 c0 -0.12 0 -0.28 0.04 -0.44 c0 -0.12 0 -0.28 0.04 -0.4 l0 -0.32 l0.08 -0.44 c0.04 -0.12 0.08 -0.24 0.08 -0.4 c0 -0.12 0.04 -0.24 0.08 -0.4 l0 -0.12 c0.04 -0.16 0.12 -0.28 0.12 -0.44 c0 -0.04 0.04 -0.08 0.04 -0.16 c0.08 -0.16 0.12 -0.36 0.16 -0.56 l0.32 -0.84 l0.12 -0.32 l0.12 -0.32 c0.04 -0.12 0.08 -0.28 0.16 -0.4 l0.2 -0.4 c0.08 -0.16 0.12 -0.32 0.2 -0.44 l0.44 -0.8 c0.12 -0.16 0.2 -0.28 0.24 -0.4 l0.28 -0.4 c0.2 -0.28 0.36 -0.56 0.56 -0.8 c0.12 -0.16 0.2 -0.32 0.36 -0.44 l0.24 -0.32 c0.04 -0.08 0.12 -0.16 0.2 -0.24 l0.24 -0.28 l0.36 -0.44 l0.04 0 l0.52 -0.6 l0.36 -0.32 l0.32 -0.36 l0.44 -0.36 l0.4 -0.36 c0.08 -0.12 0.2 -0.16 0.28 -0.24 l0.28 -0.24 l0.32 -0.24 l0.64 -0.44 l0.68 -0.4 c0.2 -0.12 0.4 -0.24 0.64 -0.32 c0.36 -0.16 0.68 -0.32 1.04 -0.44 l0.6 -0.2 c0.2 -0.08 0.4 -0.08 0.6 -0.16 c0.2 0 0.36 -0.08 0.56 -0.08 c0.12 -0.04 0.24 0 0.36 -0.04 l0.36 0 c0.24 0 0.52 0 0.76 0.04 c0.16 0 0.32 0 0.48 0.04 l0.52 0.12 c0.16 0.08 0.32 0.16 0.48 0.2 c0.12 0.08 0.28 0.12 0.4 0.24 c0.32 0.16 0.52 0.44 0.8 0.68 l0.24 0.36 c0.08 0.12 0.16 0.28 0.2 0.44 c0.08 0.12 0.08 0.24 0.12 0.36 c0.04 0.2 0.08 0.4 0.08 0.56 l0 0.44 c-0.04 0.4 -0.16 0.76 -0.28 1.12 l-0.24 0.64 c-0.16 0.36 -0.28 0.76 -0.44 1.16 l-0.36 0.72 c-0.08 0.16 -0.16 0.32 -0.28 0.48 l-0.2 0.28 l-0.32 0.4 c-0.12 0.08 -0.24 0.16 -0.4 0.2 c-0.12 0.04 -0.24 0.04 -0.36 0 c-0.08 0 -0.12 -0.04 -0.16 -0.04 s-0.08 -0.04 -0.12 -0.08 l-0.16 -0.12 l-0.04 -0.04 c0 -0.08 -0.04 -0.12 -0.04 -0.16 c-0.04 -0.2 -0.04 -0.4 0.04 -0.6 c0.04 -0.2 0.12 -0.36 0.2 -0.52 c0.08 -0.2 0.2 -0.36 0.36 -0.52 c0.12 -0.16 0.28 -0.28 0.44 -0.44 l0.52 -0.68 l0.32 -0.4 l0.12 -0.16 c0.12 -0.24 0.24 -0.48 0.32 -0.72 l0.12 -0.4 c0.04 -0.28 0.04 -0.56 0.04 -0.8 c0 -0.2 -0.04 -0.4 -0.08 -0.56 l-0.12 -0.32 c-0.04 -0.12 -0.12 -0.2 -0.16 -0.28 c-0.08 -0.12 -0.16 -0.2 -0.24 -0.24 l-0.12 -0.12 c-0.08 -0.12 -0.2 -0.12 -0.28 -0.16 c-0.12 0 -0.2 -0.04 -0.32 -0.04 c-0.04 -0.04 -0.12 -0.04 -0.16 -0.04 c-0.08 -0.04 -0.16 -0.04 -0.2 -0.04 c-0.2 -0.04 -0.4 0 -0.56 -0.04 l-0.12 0 c-0.2 0 -0.44 0.04 -0.68 0.08 c-0.28 0 -0.56 0.12 -0.84 0.16 l-0.4 0.16 l-0.68 0.28 c-0.24 0.08 -0.4 0.2 -0.6 0.28 l-0.44 0.24 l-0.52 0.32 c-0.04 0 -0.08 0.04 -0.12 0.08 c-0.24 0.12 -0.48 0.28 -0.68 0.44 l-0.16 0.12 l-0.16 0.12 l-0.32 0.24 l-0.44 0.4 l-0.04 0 c-0.16 0.2 -0.36 0.36 -0.52 0.52 l-0.48 0.48 l-0.44 0.48 c-0.04 0.08 -0.16 0.16 -0.2 0.24 c-0.2 0.2 -0.32 0.4 -0.48 0.6 c-0.2 0.2 -0.36 0.44 -0.52 0.68 l-0.4 0.56 l-0.28 0.44 l-0.44 0.76 c-0.2 0.32 -0.32 0.68 -0.48 1 c-0.08 0.2 -0.16 0.44 -0.28 0.64 c-0.12 0.32 -0.24 0.64 -0.32 1 c-0.12 0.28 -0.24 0.6 -0.32 0.92 l-0.12 0.64 c-0.04 0.2 -0.12 0.4 -0.12 0.6 l-0.08 0.4 l-0.08 0.52 c0.04 0.16 0 0.36 0 0.52 c-0.04 0.24 -0.04 0.48 -0.04 0.72 c0 0.28 0 0.52 0.04 0.8 c0 0.24 0.04 0.44 0.08 0.64 l0.08 0.44 l0.16 0.64 c0.08 0.16 0.12 0.36 0.2 0.56 s0.16 0.44 0.32 0.64 c0.04 0.12 0.12 0.24 0.2 0.36 l0.36 0.48 l0.6 0.6 c0.28 0.24 0.52 0.44 0.84 0.6 c0.2 0.08 0.36 0.16 0.56 0.2 l0.52 0.12 c0.16 0 0.32 0.04 0.48 0.04 c0.08 0 0.16 0.04 0.24 0 c0.16 -0.04 0.32 0 0.48 0 l0.48 -0.08 c0.2 -0.04 0.4 -0.12 0.6 -0.2 l0.36 -0.12 l0.44 -0.2 l0.52 -0.32 c0.12 -0.08 0.2 -0.16 0.32 -0.16 c0.08 -0.12 0.2 -0.16 0.32 -0.24 l0.28 -0.2 c0.04 -0.04 0.08 -0.08 0.16 -0.08 l0.36 -0.32 l0.4 -0.32 l0.4 -0.36 l0.48 -0.48 l0.44 -0.48 l0.28 -0.32 l0.28 -0.32 s0 -0.04 0.04 -0.04 c0.2 -0.2 0.32 -0.44 0.52 -0.68 l0.2 -0.28 l0.24 -0.32 c0.16 -0.24 0.32 -0.52 0.52 -0.76 c0 0 0.04 0 0.08 -0.04 c0.08 -0.2 0.2 -0.4 0.32 -0.6 c0.12 -0.24 0.28 -0.44 0.4 -0.64 l0.44 -0.76 l0.36 -0.56 c0.04 -0.08 0.12 -0.12 0.16 -0.24 c0 -0.04 0.04 -0.08 0.08 -0.12 s0 -0.04 0 -0.04 l-0.04 0 c-0.12 0 -0.24 0 -0.32 -0.04 c-0.08 0.04 -0.12 0 -0.2 0.04 l-0.72 0 c-0.2 0 -0.44 0 -0.68 0.04 c-0.12 0 -0.28 0 -0.4 0.08 c-0.16 0 -0.32 0.08 -0.52 0.12 c-0.04 0 -0.12 0.04 -0.16 0.08 c-0.2 0.08 -0.4 0.16 -0.6 0.28 c-0.16 0.12 -0.32 0.2 -0.48 0.36 l-0.4 0.32 l-0.24 0.28 c-0.04 0.04 -0.04 0.08 -0.08 0.08 s-0.04 0.04 -0.04 0.04 c-0.04 0.12 -0.12 0.16 -0.2 0.24 c-0.04 0.08 -0.12 0.16 -0.2 0.24 l-0.08 0.12 l-0.12 0.16 c-0.12 0.08 -0.16 0.2 -0.28 0.24 l-0.04 0.04 c-0.08 0.12 -0.24 0.16 -0.36 0.24 l-0.12 0 c-0.08 0.04 -0.2 0.04 -0.28 0.04 c-0.12 0 -0.24 -0.04 -0.32 -0.08 c-0.16 -0.12 -0.2 -0.2 -0.28 -0.32 l0 -0.08 c-0.04 -0.24 -0.04 -0.48 0.08 -0.72 c0.08 -0.16 0.12 -0.36 0.24 -0.52 l0.44 -0.48 c0.24 -0.2 0.52 -0.36 0.76 -0.52 c0.24 -0.12 0.48 -0.28 0.72 -0.36 c0.12 -0.04 0.2 -0.08 0.32 -0.08 c0.08 -0.08 0.24 -0.08 0.36 -0.12 c0.08 -0.04 0.16 -0.08 0.24 -0.08 s0.16 -0.04 0.24 -0.04 s0.12 -0.04 0.16 -0.04 c0.08 0 0.12 -0.04 0.16 0 c0.12 -0.08 0.32 0 0.44 -0.08 c0.04 0 0.08 0.04 0.12 0 c0 0 0.04 -0.04 0.08 -0.04 l0.4 0 c0.08 0 0.16 -0.04 0.24 -0.04 c0.08 0.04 0.12 0 0.2 0 c0.12 0.04 0.24 0 0.32 0 l0.12 0 c0.16 0.04 0.32 0 0.48 0 l0.4 0 c0.2 -0.04 0.4 0 0.6 -0.04 c0.12 0.04 0.28 0 0.44 0 c0.04 0 0.08 0 0.08 -0.04 l0.04 0 c0.24 -0.12 0.44 -0.32 0.6 -0.52 c0.2 -0.2 0.4 -0.4 0.64 -0.56 c0.44 -0.28 1.08 -0.48 1.6 -0.36 c0.24 0.08 0.56 0.2 0.64 0.48 c0.04 0.2 -0.04 0.44 -0.16 0.64 c-0.12 0.12 -0.24 0.24 -0.4 0.32 c-0.08 0.04 -0.16 0.08 -0.2 0.08 c-0.08 0.04 -0.12 0.08 -0.2 0.08 z M34.48 32.84 l0.04 0.04 c0 0.08 0 0.16 -0.04 0.24 c-0.04 0.16 -0.12 0.28 -0.2 0.4 c-0.2 0.24 -0.36 0.48 -0.52 0.72 l-0.56 0.76 l-0.52 0.76 l-0.48 0.64 l-0.12 0.2 l-0.6 0.68 l-0.68 0.72 c-0.12 0.16 -0.28 0.32 -0.44 0.44 c-0.28 0.28 -0.52 0.52 -0.84 0.76 l-0.16 0.08 l-0.44 0.24 c-0.2 0.12 -0.4 0.2 -0.6 0.24 c-0.12 0 -0.24 0.04 -0.36 0.04 s-0.24 -0.04 -0.36 -0.08 s-0.24 -0.08 -0.36 -0.08 l-0.2 -0.12 l-0.28 -0.2 c-0.28 -0.2 -0.44 -0.48 -0.56 -0.76 c-0.48 -1.48 0.92 -4.72 2.36 -7.16 c-0.88 0.28 -1.96 0.28 -2.8 -0.04 c-0.12 0.16 -0.24 0.36 -0.4 0.52 l-0.36 0.52 l-0.44 0.6 l-0.56 0.76 c-0.04 0.08 -0.16 0.16 -0.2 0.28 c-0.04 0.04 -0.08 0.04 -0.08 0 c-0.04 -0.04 -0.08 -0.04 -0.12 -0.04 s-0.08 0 -0.12 -0.04 l-0.04 -0.04 c0 -0.08 0 -0.16 0.04 -0.24 c0.04 -0.16 0.12 -0.28 0.2 -0.4 c0.2 -0.24 0.36 -0.48 0.52 -0.72 l0.56 -0.76 l0.48 -0.72 c-0.56 -0.4 -0.96 -1 -0.96 -1.88 c0 -0.72 0.32 -1.48 0.88 -1.96 l0.04 0 l0.08 -0.08 c0.08 -0.08 0.24 -0.12 0.36 -0.12 c0.4 -0.12 1.12 -0.08 1.16 0.6 c0.04 0.16 0 0.28 0 0.4 c-0.24 1.04 -0.52 3.04 0.76 3.04 c1.2 0 2.2 -1.72 3.12 -2.2 c0.32 -0.08 0.6 -0.08 0.92 -0.04 c0.2 0.04 0.48 0.04 0.64 0.16 c0.08 0.08 0.12 0.16 0.16 0.24 l-0.08 0.08 l-0.24 0.44 l-0.2 0.36 l-1.2 1.84 c-0.12 0.28 -0.28 0.56 -0.44 0.8 c-0.2 0.32 -0.36 0.68 -0.52 1 l-0.48 0.92 c-0.12 0.2 -0.2 0.44 -0.32 0.68 l-0.2 0.32 l-0.24 0.72 c-0.08 0.16 -0.12 0.32 -0.16 0.48 c0 0.08 -0.04 0.12 -0.04 0.2 c0 0.16 -0.04 0.32 -0.04 0.48 s0.08 0.32 0.08 0.44 l0.16 0.24 c0.04 0.04 0.08 0.12 0.16 0.16 s0.16 0.08 0.24 0.08 c0.12 0 0.28 0 0.4 -0.04 c0.08 0 0.16 -0.04 0.24 -0.08 c0.2 -0.08 0.36 -0.24 0.52 -0.36 l0.44 -0.44 c0.24 -0.32 0.52 -0.6 0.76 -0.96 l0.36 -0.44 c0.12 -0.16 0.24 -0.24 0.32 -0.4 l0.16 -0.2 c0.2 -0.2 0.32 -0.44 0.52 -0.64 l0.36 -0.52 l0.44 -0.6 l0.56 -0.76 c0.04 -0.08 0.16 -0.16 0.2 -0.28 c0.04 -0.04 0.08 -0.04 0.08 0 c0.04 0.04 0.08 0.04 0.12 0.04 s0.08 0 0.12 0.04 z M46 32.88 l0 0.16 c0.04 0.08 -0.04 0.16 -0.12 0.24 l0 0.04 s0 0.04 -0.04 0.04 l-0.52 0.68 c-0.64 0.6 -1.56 1.6 -3.24 1.72 c-0.28 0 -0.52 -0.04 -0.76 -0.08 c0 0 -0.04 0.04 -0.04 0.08 c-0.08 0.16 -0.2 0.28 -0.28 0.4 l-0.52 0.72 l-0.44 0.52 c-0.08 0.12 -0.2 0.2 -0.28 0.36 c-0.08 0.08 -0.16 0.16 -0.24 0.2 s-0.12 0.12 -0.16 0.16 l-0.52 0.44 c-0.2 0.16 -0.4 0.32 -0.6 0.44 c-0.16 0.08 -0.32 0.2 -0.52 0.28 c-0.08 0 -0.12 0.08 -0.16 0.12 c-0.28 0.08 -0.52 0.2 -0.76 0.32 c-0.2 0.04 -0.4 0.08 -0.56 0.16 c-0.48 0 -0.96 0.08 -1.48 0 c-0.04 0 -0.08 -0.04 -0.2 -0.04 c-0.2 -0.12 -0.4 -0.2 -0.56 -0.32 c-0.44 -0.32 -0.84 -0.72 -1.08 -1.28 l-0.12 -0.36 c0 -0.04 0 -0.08 -0.04 -0.12 c-0.04 -0.12 -0.04 -0.24 -0.04 -0.36 c-0.04 -0.08 -0.08 -0.16 -0.04 -0.24 c0 -0.08 0 -0.12 -0.04 -0.2 l0 -0.16 c0.04 -0.04 0.04 -0.08 0.04 -0.12 c-0.04 -0.12 0 -0.2 0 -0.28 s0 -0.2 0.04 -0.28 c0.04 -0.16 0.04 -0.32 0.12 -0.48 c0 -0.2 0.12 -0.4 0.12 -0.6 l0.16 -0.4 c0.08 -0.2 0.16 -0.4 0.28 -0.6 l0.24 -0.52 c0 -0.04 0.08 -0.08 0.08 -0.16 c0.04 -0.12 0.16 -0.2 0.2 -0.32 l0.16 -0.28 c0.08 -0.16 0.4 -0.8 0.52 -0.92 c0.16 -0.24 0.32 -0.48 0.52 -0.72 c0.12 -0.16 0.28 -0.32 0.4 -0.52 c0.12 -0.12 0.24 -0.2 0.32 -0.36 c0.08 -0.08 0.16 -0.16 0.24 -0.2 l0.16 -0.16 l0.48 -0.44 l0.64 -0.44 c0.16 -0.08 0.32 -0.2 0.52 -0.28 c0.04 0 0.12 -0.08 0.16 -0.08 l0.76 -0.32 c0.2 -0.08 0.4 -0.12 0.56 -0.2 c0.08 0 0.16 0.04 0.2 -0.04 c0.04 0.04 0.08 0 0.12 0 l0.24 0 c0.2 0 0.84 0.04 1.04 0.12 c0.24 0.08 0.52 0.2 0.72 0.32 l0 0.04 c0.4 0.32 0.76 0.68 0.96 1.2 c0.08 0.12 0.12 0.24 0.12 0.36 c0 0.04 0.04 0.08 0.04 0.16 c0.04 0.08 0.08 0.2 0.08 0.32 c0 0.08 0.04 0.16 0.04 0.24 s0 0.16 0.04 0.2 c0 0.04 0 0.12 -0.04 0.16 l0 0.12 c0.04 0.12 0 0.2 0 0.28 c0 0.12 -0.04 0.2 -0.04 0.28 c-0.2 0.88 -0.48 1.92 -0.96 2.76 c-0.08 0.16 -0.16 0.36 -0.28 0.52 c0.16 0.08 0.36 0.16 0.56 0.16 l0.04 0 c0.24 0 0.28 0 0.48 -0.08 c0.8 -0.24 1.8 -1.36 2.44 -1.92 c0.2 -0.16 0.4 -0.44 0.6 -0.56 l0.08 0 c0.08 0 0.08 0.04 0.12 0.04 c0.04 0.04 0.04 0.04 0.04 0.08 z M40.88 33.12 c0.12 0.4 0.12 1.24 0.32 1.6 c0.12 -0.24 0.52 -0.88 0.64 -1.24 c0.16 -0.52 0.4 -1.6 0.4 -1.68 c0.04 -0.64 0 -1.32 -0.32 -1.88 c0 -0.04 0 -0.04 -0.04 -0.08 c-0.2 -0.32 -0.52 -0.52 -0.84 -0.72 c-0.2 -0.12 -0.84 -0.2 -1.08 -0.16 l-0.36 0.12 l-0.32 0.2 c-0.16 0.16 -0.32 0.28 -0.48 0.48 l-0.24 0.24 l-0.72 0.76 c-0.16 0.16 -0.24 0.32 -0.4 0.48 l-0.32 0.36 c-0.08 0.16 -0.2 0.28 -0.28 0.4 c-0.12 0.16 -0.48 0.84 -0.56 1 c-0.16 0.2 -0.28 0.4 -0.4 0.6 s-0.24 0.44 -0.4 0.64 c0 0.04 -0.04 0.08 -0.04 0.16 c-0.2 0.32 -0.36 0.68 -0.48 1.04 l-0.08 0.16 c-0.32 0.88 -0.48 1.84 -0.2 2.72 c0.08 0.32 0.24 0.6 0.44 0.84 c0.2 0.08 0.8 0.12 1 0.12 c0.52 0 1.56 -0.56 2 -1 c0.8 -0.64 1.56 -1.36 2.16 -2.16 c0.16 -0.2 0.32 -0.4 0.44 -0.6 c-0.28 -0.12 -0.64 -0.48 -0.88 -0.68 c-0.56 -0.44 -0.6 -1.2 -0.32 -1.8 c0.08 -0.16 0.2 -0.28 0.36 -0.36 s0.32 -0.12 0.44 -0.08 c0.28 0.04 0.48 0.28 0.56 0.52 z M51.8 28.560000000000002 l0.28 0 c0.24 -0.04 0.44 0.08 0.68 0.12 l0.4 0.24 c0.24 0.16 0.4 0.4 0.48 0.68 c0 0.16 0.04 0.28 0.04 0.44 c0 0.04 0.04 0.12 0.04 0.2 l0 0.2 c0.04 0.04 0 0.12 0 0.2 c0 0.28 -0.08 0.52 -0.2 0.76 c-0.08 0.12 -0.12 0.28 -0.24 0.44 c-0.08 0.16 -0.24 0.28 -0.44 0.36 c-0.04 0 -0.12 0 -0.2 -0.04 c-0.16 -0.08 -0.24 -0.24 -0.2 -0.4 l0.16 -0.32 c0.12 -0.24 0.28 -0.48 0.36 -0.76 c0.04 -0.08 0.04 -0.2 0.04 -0.28 c0.04 -0.08 0.04 -0.2 0.04 -0.28 c0 -0.12 0 -0.24 -0.04 -0.32 c-0.04 -0.16 -0.16 -0.32 -0.28 -0.4 c-0.08 -0.08 -0.2 -0.08 -0.28 -0.12 c-0.16 -0.04 -0.36 -0.08 -0.52 -0.04 s-0.32 0.04 -0.48 0.12 c-0.32 0.08 -0.6 0.24 -0.84 0.44 c-0.2 0.16 -0.36 0.28 -0.52 0.48 c-0.04 0.08 -0.12 0.16 -0.2 0.24 c-0.28 0.24 -0.48 0.52 -0.76 0.76 l-0.36 0.48 l-0.32 0.36 l-0.32 0.4 c-0.08 0.16 -0.2 0.32 -0.32 0.48 c-0.12 0.2 -0.24 0.4 -0.4 0.6 l-0.36 0.64 l-0.08 0.16 c-0.2 0.32 -0.36 0.68 -0.48 1.04 c-0.08 0.24 -0.16 0.48 -0.2 0.72 c-0.04 0.16 -0.04 0.36 -0.12 0.56 c0 0.12 -0.04 0.24 -0.04 0.4 l0 0.6 c0 0.16 0.04 0.28 0.12 0.44 l0 0.12 c0.12 0.24 0.24 0.44 0.4 0.6 c0.08 0.04 0.16 0.12 0.2 0.2 c0.08 0.08 0.2 0.12 0.32 0.16 c0.2 0.04 0.4 0.08 0.6 0.16 c0.2 0.04 0.56 0.08 0.84 0 c0.12 -0.04 0.24 -0.08 0.32 -0.08 c0.04 0 0.08 0 0.08 -0.04 c0.16 -0.08 0.36 -0.12 0.52 -0.16 l0.12 -0.08 c0.32 -0.16 0.64 -0.32 0.92 -0.52 l0.56 -0.4 l0.72 -0.64 l0.56 -0.52 c0.2 -0.16 0.32 -0.36 0.48 -0.56 l0.32 -0.4 c0.12 -0.12 0.2 -0.24 0.28 -0.36 l0.32 -0.4 l0.24 -0.32 l0.4 -0.52 l0.44 -0.6 l0.56 -0.76 c0.04 -0.12 0.16 -0.2 0.2 -0.28 c0.04 -0.04 0.08 -0.08 0.12 0 l0.08 0 c0.04 0 0.08 0.04 0.12 0.04 c0.04 0.04 0.04 0.04 0.04 0.08 l0 0.2 l-0.24 0.44 c-0.2 0.24 -0.4 0.48 -0.56 0.76 l-0.56 0.76 l-0.48 0.72 l-0.52 0.68 l-0.28 0.36 c0 0.04 -0.04 0.04 -0.08 0.08 c-0.24 0.16 -0.4 0.4 -0.6 0.64 l-1.04 1.04 c-0.16 0.16 -0.36 0.28 -0.52 0.4 c-0.2 0.16 -0.44 0.28 -0.64 0.4 c-0.24 0.12 -0.44 0.24 -0.68 0.32 c-0.2 0.08 -0.44 0.16 -0.64 0.2 c-0.04 0 -0.12 0 -0.16 0.04 l-0.44 0.12 c-0.12 0 -0.24 0.04 -0.36 0.08 c-0.08 0 -0.16 0 -0.24 0.04 c-0.12 0 -0.24 -0.04 -0.36 0 c-0.04 0 -0.12 0.04 -0.16 0 l-0.08 0 c-0.28 -0.04 -0.6 -0.08 -0.88 -0.2 c-0.28 -0.08 -0.72 -0.28 -0.92 -0.44 c-0.48 -0.32 -0.84 -0.72 -1.08 -1.28 c-0.04 -0.12 -0.12 -0.24 -0.12 -0.36 c0 -0.04 -0.04 -0.08 -0.04 -0.12 c-0.04 -0.12 -0.08 -0.24 -0.08 -0.36 c0 -0.08 -0.04 -0.16 -0.04 -0.24 l0 -0.2 c-0.04 -0.04 -0.04 -0.12 0 -0.16 l0 -0.12 c-0.04 -0.12 0 -0.2 0 -0.28 s0.04 -0.2 0.04 -0.28 c0.04 -0.16 0.04 -0.32 0.12 -0.48 c0 -0.2 0.16 -0.4 0.16 -0.6 c0.04 -0.16 0.08 -0.28 0.16 -0.4 l0.24 -0.6 l0.24 -0.52 l0.12 -0.16 l0.16 -0.32 l0.2 -0.28 c0.04 -0.16 0.16 -0.28 0.24 -0.4 l0.52 -0.72 l0.44 -0.52 l0.32 -0.36 c0.04 -0.08 0.12 -0.12 0.2 -0.2 c0.08 -0.04 0.12 -0.12 0.16 -0.16 c0.16 -0.16 0.36 -0.28 0.52 -0.4 l0.6 -0.48 c0.2 -0.08 0.32 -0.2 0.52 -0.28 c0.08 0 0.12 -0.08 0.2 -0.08 c0.24 -0.12 0.48 -0.24 0.72 -0.32 l0.6 -0.2 c0.04 0 0.12 0.04 0.16 -0.04 c0.12 0.04 0.24 0 0.32 0 c0.24 -0.04 0.44 -0.04 0.64 -0.04 z M61.8 28.560000000000002 l0.16 0 c0.28 0 0.56 0.08 0.8 0.16 c0.2 0.08 0.4 0.2 0.56 0.36 c0.12 0.16 0.2 0.32 0.28 0.48 c0.12 0.24 0.16 0.52 0.24 0.76 l0 0.16 c0 0.12 -0.04 0.24 0 0.4 c0.04 0.04 0.04 0.08 0 0.12 l0 0.08 c0 0.24 -0.08 0.44 -0.12 0.64 c-0.08 0.24 -0.16 0.48 -0.28 0.72 c-0.08 0.28 -0.24 0.52 -0.36 0.8 c-0.16 0.28 -0.36 0.56 -0.56 0.84 s-0.48 0.52 -0.76 0.8 c-0.24 0.2 -0.52 0.36 -0.76 0.52 c-0.08 0.04 -0.16 0.08 -0.2 0.08 c-0.2 0.12 -0.4 0.2 -0.6 0.24 c-0.2 0.08 -0.36 0.12 -0.56 0.16 c-0.28 0.04 -0.52 0.08 -0.76 0.08 c-0.12 0 -0.2 0 -0.32 -0.04 c-0.04 0 -0.08 0 -0.16 -0.04 c-0.16 0 -0.28 -0.08 -0.4 -0.16 c-0.16 -0.04 -0.28 -0.12 -0.4 -0.2 s-0.2 -0.16 -0.28 -0.28 l-0.24 -0.28 c-0.08 -0.12 -0.16 -0.24 -0.2 -0.36 l0 -0.04 s-0.04 0 -0.04 0.04 c-0.16 0.28 -0.28 0.6 -0.4 0.92 c-0.04 0.16 -0.12 0.32 -0.16 0.52 c-0.04 0.16 -0.08 0.28 -0.08 0.44 c0.04 0.04 0 0.08 0 0.12 c-0.04 0.16 -0.08 0.36 -0.08 0.52 l0 0.52 c0 0.2 0.04 0.36 0.12 0.52 c0 0.04 0 0.08 0.04 0.12 c0.04 0.16 0.08 0.28 0.2 0.36 c0.12 0.2 0.28 0.36 0.48 0.48 c0.04 0.04 0.04 0.04 0.08 0.04 c0.28 0.12 0.6 0.2 0.88 0.24 c0.2 0.04 0.44 0.04 0.64 -0.04 l0.36 -0.08 l0.08 0 c0.12 -0.08 0.32 -0.12 0.48 -0.2 c0.08 0 0.12 -0.04 0.16 -0.08 c0.32 -0.16 0.6 -0.28 0.88 -0.52 c0.28 -0.16 0.52 -0.36 0.76 -0.56 c0.16 -0.16 0.32 -0.32 0.52 -0.44 c0.12 -0.12 0.24 -0.2 0.32 -0.32 l0.24 -0.2 c0.2 -0.16 0.32 -0.4 0.48 -0.6 l0.32 -0.4 c0.12 -0.08 0.2 -0.24 0.28 -0.36 l0.32 -0.36 l0.24 -0.32 l0.4 -0.56 l0.44 -0.56 c0.16 -0.28 0.36 -0.52 0.52 -0.76 l0.24 -0.28 c0 -0.04 0.04 -0.08 0.12 0 l0.08 0 c0.12 0.04 0.16 0.08 0.16 0.2 s-0.04 0.24 -0.12 0.32 c-0.08 0.16 -0.2 0.32 -0.32 0.44 c-0.12 0.2 -0.24 0.4 -0.4 0.56 l-0.52 0.76 l-0.48 0.68 c-0.16 0.24 -0.32 0.48 -0.52 0.72 c-0.08 0.12 -0.2 0.2 -0.28 0.36 l-0.04 0.04 c-0.28 0.2 -0.44 0.44 -0.64 0.64 l-0.96 1 c-0.2 0.2 -0.44 0.4 -0.72 0.56 c-0.12 0.08 -0.28 0.2 -0.44 0.24 l-0.24 0.16 c-0.32 0.16 -0.64 0.28 -0.96 0.36 l-0.48 0.12 l-0.4 0.08 l-0.2 0.08 c-0.08 0 -0.16 0.04 -0.28 0.04 s-0.28 -0.04 -0.4 0 c0 0.04 -0.04 0.04 -0.04 0 c-0.12 -0.04 -0.28 0 -0.4 -0.04 l-0.12 0 c-0.2 -0.04 -0.44 -0.08 -0.6 -0.16 c-0.36 -0.16 -0.72 -0.28 -1 -0.52 c-0.4 -0.32 -0.72 -0.72 -0.92 -1.16 c-0.08 -0.12 -0.12 -0.24 -0.12 -0.4 c0 0 -0.04 0 -0.04 -0.04 c-0.04 -0.12 -0.08 -0.28 -0.08 -0.44 c-0.04 -0.12 -0.04 -0.2 -0.04 -0.32 l0 -0.08 c-0.04 -0.04 -0.04 -0.12 0 -0.16 c0 -0.08 0 -0.16 -0.04 -0.24 l0 -0.08 c0.04 -0.12 0.08 -0.28 0.08 -0.4 l0.12 -0.52 c0 -0.08 0.04 -0.12 0.08 -0.2 l0 -0.08 c0.04 -0.2 0.12 -0.4 0.2 -0.6 c0.08 -0.16 0.16 -0.32 0.2 -0.48 c0.08 -0.24 0.24 -0.44 0.32 -0.68 l0.16 -0.28 c0.04 -0.08 0.12 -0.12 0.12 -0.2 c0.04 -0.12 0.12 -0.2 0.2 -0.32 c0.04 -0.12 0.12 -0.24 0.2 -0.32 l0.56 -0.76 l0.48 -0.56 l0.32 -0.36 c0.08 -0.08 0.2 -0.16 0.28 -0.28 c0.16 -0.16 0.4 -0.32 0.6 -0.48 c0.16 -0.16 0.32 -0.28 0.52 -0.4 c0.2 -0.08 0.36 -0.24 0.56 -0.28 c0.16 -0.16 0.4 -0.24 0.56 -0.32 c0.28 -0.12 0.56 -0.2 0.84 -0.28 c0.2 -0.04 0.4 -0.08 0.64 -0.08 c0.2 -0.04 0.4 -0.04 0.6 -0.04 z M62.959999999999994 30.52 c0 -0.12 0 -0.24 -0.04 -0.32 c-0.04 -0.24 -0.08 -0.44 -0.16 -0.64 c-0.04 -0.12 -0.12 -0.2 -0.24 -0.24 l-0.12 0 c-0.08 -0.04 -0.16 -0.08 -0.24 -0.08 c-0.2 -0.04 -0.4 0 -0.6 0.08 c-0.48 0.12 -0.88 0.36 -1.24 0.72 l-0.24 0.24 c-0.08 0.08 -0.16 0.12 -0.2 0.24 c-0.2 0.16 -0.36 0.36 -0.52 0.52 l-0.6 0.64 c-0.12 0.16 -0.24 0.28 -0.32 0.44 c-0.16 0.2 -0.32 0.4 -0.44 0.6 l-0.2 0.24 c-0.2 0.24 -0.28 0.48 -0.32 0.76 c-0.04 0.04 -0.04 0.12 -0.04 0.2 c0.04 0.16 0.04 0.32 0.12 0.52 c0.04 0.16 0.16 0.28 0.28 0.4 c0.16 0.12 0.36 0.12 0.56 0.16 c0.2 0 0.4 0 0.6 0.04 c0.12 0 0.28 -0.04 0.4 -0.04 c0.08 0 0.16 0 0.28 -0.04 c0.16 -0.04 0.32 -0.08 0.44 -0.16 c0.24 -0.12 0.44 -0.24 0.64 -0.4 c0.24 -0.16 0.44 -0.36 0.64 -0.56 c0.16 -0.12 0.24 -0.28 0.36 -0.4 c0.28 -0.32 0.48 -0.64 0.64 -1 c0.2 -0.32 0.32 -0.64 0.4 -1 l0.12 -0.4 c0 -0.16 0.04 -0.36 0.04 -0.52 z M75.96 32.84 l0.04 0.04 c0 0.08 0 0.16 -0.04 0.24 c-0.04 0.16 -0.12 0.28 -0.2 0.4 c-0.2 0.24 -0.36 0.48 -0.52 0.72 l-0.56 0.76 l-0.52 0.76 l-0.48 0.64 l-0.12 0.2 l-0.6 0.68 l-0.68 0.72 c-0.12 0.16 -0.28 0.32 -0.44 0.44 c-0.28 0.28 -0.52 0.52 -0.84 0.76 l-0.16 0.08 l-0.44 0.24 c-0.2 0.12 -0.4 0.2 -0.6 0.24 c-0.12 0 -0.24 0.04 -0.36 0.04 s-0.24 -0.04 -0.36 -0.08 s-0.24 -0.08 -0.36 -0.08 l-0.2 -0.12 l-0.28 -0.2 c-0.28 -0.2 -0.44 -0.48 -0.56 -0.76 c-0.48 -1.48 0.92 -4.72 2.36 -7.16 c-0.88 0.28 -1.96 0.28 -2.8 -0.04 c-0.12 0.16 -0.24 0.36 -0.4 0.52 l-0.36 0.52 l-0.44 0.6 l-0.56 0.76 c-0.04 0.08 -0.16 0.16 -0.2 0.28 c-0.04 0.04 -0.08 0.04 -0.08 0 c-0.04 -0.04 -0.08 -0.04 -0.12 -0.04 s-0.08 0 -0.12 -0.04 l-0.04 -0.04 c0 -0.08 0 -0.16 0.04 -0.24 c0.04 -0.16 0.12 -0.28 0.2 -0.4 c0.2 -0.24 0.36 -0.48 0.52 -0.72 l0.56 -0.76 l0.48 -0.72 c-0.56 -0.4 -0.96 -1 -0.96 -1.88 c0 -0.72 0.32 -1.48 0.88 -1.96 l0.04 0 l0.08 -0.08 c0.08 -0.08 0.24 -0.12 0.36 -0.12 c0.4 -0.12 1.12 -0.08 1.16 0.6 c0.04 0.16 0 0.28 0 0.4 c-0.24 1.04 -0.52 3.04 0.76 3.04 c1.2 0 2.2 -1.72 3.12 -2.2 c0.32 -0.08 0.6 -0.08 0.92 -0.04 c0.2 0.04 0.48 0.04 0.64 0.16 c0.08 0.08 0.12 0.16 0.16 0.24 l-0.08 0.08 l-0.24 0.44 l-0.2 0.36 l-1.2 1.84 c-0.12 0.28 -0.28 0.56 -0.44 0.8 c-0.2 0.32 -0.36 0.68 -0.52 1 l-0.48 0.92 c-0.12 0.2 -0.2 0.44 -0.32 0.68 l-0.2 0.32 l-0.24 0.72 c-0.08 0.16 -0.12 0.32 -0.16 0.48 c0 0.08 -0.04 0.12 -0.04 0.2 c0 0.16 -0.04 0.32 -0.04 0.48 s0.08 0.32 0.08 0.44 l0.16 0.24 c0.04 0.04 0.08 0.12 0.16 0.16 s0.16 0.08 0.24 0.08 c0.12 0 0.28 0 0.4 -0.04 c0.08 0 0.16 -0.04 0.24 -0.08 c0.2 -0.08 0.36 -0.24 0.52 -0.36 l0.44 -0.44 c0.24 -0.32 0.52 -0.6 0.76 -0.96 l0.36 -0.44 c0.12 -0.16 0.24 -0.24 0.32 -0.4 l0.16 -0.2 c0.2 -0.2 0.32 -0.44 0.52 -0.64 l0.36 -0.52 l0.44 -0.6 l0.56 -0.76 c0.04 -0.08 0.16 -0.16 0.2 -0.28 c0.04 -0.04 0.08 -0.04 0.08 0 c0.04 0.04 0.08 0.04 0.12 0.04 s0.08 0 0.12 0.04 z M80.75999999999999 40.96 l0.32 -0.24 l0.64 -0.48 c0.12 -0.04 0.16 -0.12 0.24 -0.2 l0.48 -0.4 c0.24 -0.16 0.44 -0.4 0.68 -0.6 l0.56 -0.48 l0.4 -0.44 l0.52 -0.48 l0.52 -0.68 l0.44 -0.6 l0.28 -0.4 l0.16 -0.2 l0.28 -0.32 l1.6 -2.4 c0.04 -0.08 0.16 -0.16 0.2 -0.24 c0.04 -0.04 0.08 -0.08 0.12 -0.04 c0 0.04 0.04 0.04 0.08 0.04 c0.12 0 0.16 0.04 0.16 0.16 c0 0.24 -0.08 0.36 -0.16 0.48 c-0.24 0.28 -0.44 0.64 -0.64 0.92 c-0.16 0.28 -0.32 0.56 -0.52 0.8 l-0.48 0.76 l-0.48 0.72 c-0.08 0.04 -0.12 0.12 -0.16 0.24 l-0.52 0.64 l-0.72 0.84 l-0.44 0.48 l-0.36 0.4 c-0.04 0 -0.04 0.04 -0.08 0.04 l-0.28 0.24 l-0.72 0.68 l-1.28 1 c-0.24 0.16 -0.48 0.28 -0.68 0.44 l-0.28 0.2 l-0.68 0.4 l-0.24 0.48 c-0.08 0.12 -0.16 0.24 -0.2 0.4 l-0.16 0.32 l-0.32 0.56 l-0.56 1.12 l-0.56 1 l-0.4 0.72 l-0.36 0.64 l-0.28 0.48 c-0.08 0.16 -0.2 0.28 -0.32 0.44 c-0.12 0.2 -0.28 0.4 -0.44 0.6 s-0.36 0.4 -0.52 0.64 l-0.48 0.48 c-0.08 0.08 -0.12 0.2 -0.2 0.24 c-0.24 0.2 -0.48 0.36 -0.76 0.52 c-0.2 0.16 -0.44 0.28 -0.68 0.36 c-0.2 0.04 -0.36 0.12 -0.52 0.16 l-0.36 0.08 c-0.2 0 -0.36 0.04 -0.52 0.08 c-0.16 0.08 -0.36 0.12 -0.52 0.08 c-0.2 0 -0.4 0.04 -0.56 0 c-0.32 -0.08 -0.6 -0.08 -0.88 -0.2 l-0.24 0 c-0.12 -0.04 -0.28 -0.04 -0.44 -0.12 l-0.64 -0.32 l-0.28 -0.24 c-0.2 -0.2 -0.4 -0.4 -0.52 -0.64 c-0.16 -0.24 -0.28 -0.52 -0.36 -0.8 l-0.08 -0.36 c-0.04 -0.24 -0.04 -0.48 -0.04 -0.72 l0.12 -0.52 c0.12 -0.36 0.24 -0.68 0.44 -1 l0.24 -0.32 l0.76 -0.8 l0.32 -0.24 c0.24 -0.24 0.56 -0.4 0.84 -0.6 c0.32 -0.24 0.68 -0.4 1.04 -0.56 c0.2 -0.12 0.4 -0.16 0.6 -0.24 l0.44 -0.2 l0.6 -0.24 l0.56 -0.2 c0.16 -0.04 0.28 -0.04 0.4 -0.12 c0.24 -0.08 0.48 -0.16 0.76 -0.2 c0.28 -0.08 0.52 -0.16 0.8 -0.2 c0.2 -0.08 0.4 -0.12 0.56 -0.16 l0.76 -0.24 l0.48 -0.16 c0.2 -0.04 0.36 -0.12 0.52 -0.16 c0.12 -0.04 0.2 -0.12 0.24 -0.24 l0.24 -0.56 l0.96 -1.76 c0.08 -0.2 0.2 -0.4 0.32 -0.56 l0.08 -0.16 l0.36 -0.68 l0.28 -0.56 c-1.08 1.12 -2.52 2.24 -4.08 2.24 l-0.44 0 c-0.12 0 -0.24 -0.04 -0.36 -0.08 l-0.04 0 c-0.04 0 -0.08 0 -0.16 -0.04 l-0.16 0 l-0.04 -0.08 c-0.12 0 -0.2 -0.08 -0.24 -0.12 l-0.2 -0.16 c-0.28 -0.2 -0.44 -0.44 -0.56 -0.72 c-0.64 -1.92 1.28 -5.2 2.72 -8.04 l0.12 -0.2 c0.08 -0.16 0.24 -0.28 0.32 -0.52 l0.36 -0.56 c0.08 -0.2 0.24 -0.4 0.36 -0.56 c0.08 -0.04 0.16 -0.2 0.28 -0.24 c0.08 -0.08 0.24 -0.12 0.36 -0.12 l0.4 0 c0.08 -0.04 0.16 -0.04 0.24 0 c0.16 0 0.36 0.04 0.52 0.08 c0.2 0.04 0.4 0.16 0.52 0.36 c0 0.08 0 0.12 -0.04 0.2 l-0.44 0.84 l-0.32 0.48 l-0.08 0.2 l-0.24 0.4 l-0.6 1.08 c-0.12 0.28 -0.28 0.52 -0.44 0.76 l-0.52 1.04 l-0.48 0.88 l-0.32 0.68 l-0.2 0.32 l-0.24 0.72 c-0.08 0.16 -0.12 0.36 -0.16 0.48 c0 0.08 -0.04 0.16 -0.04 0.24 c-0.12 0.52 -0.16 1.8 0.68 1.8 c1.92 0 3.64 -2.32 4.52 -3.4 c1.04 -2.2 2.36 -4.96 2.36 -5 l0.12 -0.2 l0.4 -0.68 l0.28 -0.44 l0.36 -0.56 l0.28 -0.24 c0.12 -0.08 0.24 -0.12 0.36 -0.12 c0.16 -0.04 0.28 0 0.4 -0.04 c0.2 0 0.36 0.04 0.56 0.08 c0.08 0 0.16 0.04 0.24 0.04 c0.2 0.04 0.4 0.16 0.48 0.36 c0.04 0.08 0.04 0.12 0 0.2 l-0.48 0.84 l-0.28 0.52 l-0.08 0.16 l-0.24 0.44 l-0.24 0.36 l-0.48 0.92 c-0.16 0.32 -0.32 0.6 -0.52 0.88 l-0.24 0.44 c-0.36 0.68 -0.68 1.36 -1 2.04 l-0.48 0.84 c-0.12 0.16 -0.2 0.32 -0.24 0.48 l-0.12 0.2 l-0.76 1.52 l-0.36 0.64 c-0.16 0.28 -0.24 0.6 -0.4 0.84 l-0.44 0.84 l0 0.08 s-0.04 0 -0.04 0.04 l0.04 0 c0.04 0 0.04 -0.04 0.08 -0.04 l-0.04 0 z M68.32 48.72 l0 0.2 c0.04 0.16 0.04 0.28 0.12 0.44 c0.04 0.12 0.16 0.24 0.24 0.36 c0.12 0.2 0.28 0.36 0.44 0.48 l0.36 0.2 c0.24 0.08 0.48 0.12 0.72 0.16 l0.24 0 c0.04 0 0.12 0 0.16 0.04 c0.08 -0.04 0.16 -0.04 0.2 -0.04 c0.12 0 0.24 0 0.36 -0.04 c0.28 -0.04 0.52 -0.12 0.72 -0.24 c0.32 -0.16 0.64 -0.32 0.92 -0.52 s0.56 -0.4 0.84 -0.64 l0.4 -0.44 l0.56 -0.64 c0 -0.04 0.04 -0.04 0.04 -0.08 l0.44 -0.64 c0.08 -0.24 0.2 -0.48 0.32 -0.68 c0.12 -0.24 0.24 -0.44 0.32 -0.68 l0.12 -0.16 l0.24 -0.52 c0.12 -0.2 0.24 -0.36 0.32 -0.56 l0.12 -0.24 c0.16 -0.28 0.28 -0.56 0.48 -0.84 l0.24 -0.4 c0 -0.04 0.08 -0.12 0.08 -0.16 c-0.08 0 -0.12 0 -0.2 0.04 l-0.76 0.16 c-0.28 0.08 -0.6 0.16 -0.88 0.2 l-0.68 0.2 l-0.76 0.24 l-1.12 0.4 c-0.28 0.12 -0.56 0.28 -0.84 0.36 l-0.44 0.16 l-0.68 0.36 c-0.28 0.2 -0.56 0.36 -0.84 0.52 c-0.32 0.16 -0.56 0.4 -0.8 0.6 c-0.24 0.24 -0.44 0.48 -0.6 0.76 c-0.08 0.16 -0.2 0.36 -0.24 0.52 c0 0.08 0 0.12 -0.04 0.16 c-0.08 0.32 -0.12 0.64 -0.12 0.96 z M122.24000000000001 19.64 l0.08 0.24 l0 0.48 c0 0.12 0 0.28 -0.04 0.4 c0 0.08 0 0.16 -0.04 0.24 c0 0.12 -0.04 0.28 -0.08 0.4 l-0.24 0.84 c0 0.08 -0.08 0.12 -0.04 0.16 c-0.12 0.16 -0.16 0.36 -0.28 0.52 l-0.36 0.76 l-0.4 0.76 l-0.4 0.76 c-0.12 0.2 -0.24 0.44 -0.36 0.6 c-0.08 0.12 -0.12 0.24 -0.2 0.32 c-0.08 0.2 -0.2 0.4 -0.32 0.56 c-0.04 0.12 -0.08 0.16 -0.16 0.28 l-0.28 0.52 l-0.24 0.44 l-0.24 0.36 c-0.04 0.08 -0.08 0.12 -0.08 0.16 l-0.12 0.2 l-0.2 0.36 l-0.36 0.6 c-0.08 0.16 -0.16 0.32 -0.28 0.44 l-0.36 0.72 l-0.24 0.4 l-0.32 0.6 l-0.48 0.96 l-0.28 0.52 l-0.16 0.32 c-0.04 0.12 -0.12 0.24 -0.2 0.36 l-0.12 0.32 c-0.12 0.16 -0.2 0.32 -0.28 0.48 c-0.04 0.16 -0.12 0.28 -0.2 0.44 c-0.12 0.32 -0.32 0.68 -0.44 1.04 l-0.12 0.36 l-0.16 0.6 c0 0.12 -0.04 0.24 -0.04 0.4 c-0.04 0.16 -0.04 0.32 -0.04 0.52 c0 0.12 0.04 0.24 0.04 0.32 c0 0.16 0.08 0.28 0.12 0.44 c0.08 0.16 0.16 0.32 0.28 0.44 c0.04 0.04 0.12 0.04 0.16 0.04 c0.04 0.04 0.08 0.04 0.12 0.04 c0.08 0.04 0.16 0.04 0.28 0 c0.08 -0.08 0.16 -0.08 0.24 -0.12 c0.2 -0.04 0.4 -0.16 0.56 -0.24 c0.2 -0.12 0.4 -0.28 0.56 -0.44 l0.72 -0.68 l0.24 -0.2 l0.32 -0.36 c0.04 -0.08 0.12 -0.16 0.2 -0.24 l0.28 -0.36 l0.56 -0.8 l0.24 -0.28 l0.52 -0.68 l0.48 -0.64 c0.16 -0.28 0.36 -0.52 0.56 -0.8 c0.04 -0.12 0.12 -0.24 0.2 -0.36 l0.24 -0.28 c0.08 -0.12 0.16 -0.16 0.28 -0.16 c0.08 -0.04 0.16 0.04 0.12 0.12 l-0.08 0.44 c-0.16 0.32 -0.36 0.56 -0.56 0.88 s-0.48 0.64 -0.72 1 l-0.4 0.56 l-0.56 0.76 c-0.08 0.08 -0.12 0.16 -0.16 0.24 l-0.24 0.32 c-0.08 0.16 -0.2 0.28 -0.32 0.44 s-0.24 0.36 -0.4 0.52 l-0.28 0.32 l-0.4 0.44 l-0.36 0.36 c-0.16 0.16 -0.32 0.28 -0.48 0.4 l-0.24 0.2 l-0.32 0.16 c-0.08 0 -0.16 0.04 -0.2 0.04 c-0.08 0.04 -0.2 0.08 -0.28 0.08 c-0.12 0 -0.28 0 -0.44 0.04 l-0.48 0 c-0.2 0 -0.4 -0.04 -0.56 -0.12 c-0.28 -0.16 -0.56 -0.28 -0.84 -0.48 c-0.16 -0.16 -0.36 -0.28 -0.48 -0.48 c-0.08 -0.16 -0.16 -0.32 -0.2 -0.52 c0 -0.16 -0.04 -0.32 -0.08 -0.52 c-0.04 -0.24 0 -0.48 0 -0.68 s0.08 -0.4 0.12 -0.6 l0.12 -0.64 c0.04 -0.16 0.08 -0.28 0.16 -0.4 c0.08 -0.32 0.24 -0.64 0.36 -0.96 l0.36 -0.76 l0.36 -0.8 l0.36 -0.72 l0.12 -0.2 l0.4 -0.8 l0.2 -0.36 l0.04 -0.04 l0 -0.04 l0.16 -0.32 c0.12 -0.16 0.24 -0.36 0.32 -0.6 l0.32 -0.52 c0.12 -0.24 0.24 -0.48 0.4 -0.72 c0.12 -0.24 0.24 -0.52 0.4 -0.76 c0.08 -0.2 0.16 -0.4 0.28 -0.56 l0.52 -0.92 l0.4 -0.72 l0.56 -1 c0.12 -0.2 0.2 -0.4 0.32 -0.56 l0.52 -0.96 l0.24 -0.48 c0.12 -0.28 0.28 -0.52 0.44 -0.8 c0.16 -0.36 0.36 -0.72 0.48 -1.08 c0.08 -0.2 0.16 -0.4 0.2 -0.6 c0.08 -0.16 0.12 -0.36 0.16 -0.52 c0 -0.12 0.04 -0.24 0.08 -0.32 l0 -0.28 c0.04 -0.04 0.04 -0.08 0.04 -0.16 l0 -0.16 c0 -0.16 0.04 -0.36 0 -0.52 c-0.04 -0.08 -0.04 -0.12 -0.12 -0.12 l-0.32 0.16 c-0.16 0.08 -0.28 0.24 -0.4 0.36 c-0.2 0.16 -0.36 0.32 -0.52 0.52 l-0.12 0.08 l-0.52 0.6 c-0.08 0.08 -0.16 0.16 -0.2 0.24 l-0.36 0.4 c-0.08 0.12 -0.2 0.2 -0.24 0.32 c-0.08 0.04 -0.16 0.12 -0.24 0.2 l-0.36 0.48 c-0.04 0 -0.08 0.04 -0.08 0.08 c-0.08 0.12 -0.2 0.24 -0.32 0.32 c-0.08 0.12 -0.16 0.24 -0.28 0.36 l-0.28 0.36 l-0.28 0.32 l-0.28 0.36 l-0.16 0.2 l-0.32 0.4 l-0.32 0.4 l-0.36 0.48 c-0.12 0.08 -0.2 0.2 -0.28 0.32 c-0.12 0.16 -0.28 0.28 -0.4 0.48 l-0.16 0.16 c-0.08 0.12 -0.16 0.24 -0.28 0.36 l-0.24 0.32 c-0.12 0.16 -0.24 0.32 -0.4 0.48 l-0.28 0.32 l-0.4 0.48 l-0.2 0.24 c-0.08 0.12 -0.16 0.24 -0.28 0.36 l-0.16 0.2 l-0.32 0.36 l-0.16 0.2 c-0.08 0.16 -0.2 0.24 -0.32 0.4 c-0.4 0.4 -0.72 0.8 -1 1.28 c-0.04 0 -0.04 0 -0.04 0.04 l-0.24 0.24 l-0.12 0.16 c-0.16 0.2 -0.32 0.36 -0.44 0.56 l-0.4 0.44 c-0.16 0.2 -0.36 0.4 -0.52 0.64 l-0.16 0.2 c-0.56 0.76 -1.08 1.6 -1.4 2.52 c-0.72 2.16 -0.64 2.92 -0.36 4.12 c0 0.04 0.04 0.08 0.04 0.16 c0.04 0.16 -0.08 0.32 -0.24 0.32 c-0.56 -0.04 -1.08 -0.28 -1.48 -0.68 c-0.8 -0.8 -1 -2 -0.8 -3.08 c0.16 -0.84 0.52 -1.6 0.88 -2.36 l0.12 -0.24 l0.36 -0.8 c0.12 -0.24 0.24 -0.48 0.4 -0.72 c0.04 -0.08 0.08 -0.16 0.08 -0.2 c0.16 -0.28 0.28 -0.56 0.44 -0.8 l0.16 -0.36 c0.04 0 0.04 -0.04 0.04 -0.04 l0 -0.04 l0.32 -0.48 c0.04 -0.16 0.16 -0.28 0.2 -0.44 l0.08 -0.12 l0.2 -0.4 c0.16 -0.24 0.28 -0.48 0.4 -0.72 c0.16 -0.24 0.28 -0.52 0.4 -0.76 c0.12 -0.2 0.2 -0.4 0.32 -0.56 l0.48 -0.92 c0.16 -0.24 0.28 -0.48 0.4 -0.72 c0.2 -0.32 0.36 -0.68 0.6 -1 c0.08 -0.2 0.16 -0.4 0.28 -0.56 c0.2 -0.32 0.36 -0.64 0.52 -0.96 l0.24 -0.48 c0.16 -0.28 0.32 -0.52 0.44 -0.8 l0.52 -1.08 c0.08 -0.2 0.16 -0.4 0.2 -0.6 c0.04 -0.16 0.12 -0.36 0.12 -0.52 c0.04 -0.12 0.08 -0.24 0.08 -0.32 c0 -0.12 0 -0.2 0.04 -0.28 l0 -0.16 c0 -0.04 0.04 -0.08 0.04 -0.16 l0 -0.4 l-0.28 -0.2 l-0.16 0.12 c-0.16 0.08 -0.32 0.24 -0.44 0.36 l-0.48 0.52 l-0.12 0.08 l-0.56 0.6 c-0.04 0.08 -0.12 0.16 -0.2 0.24 l-0.36 0.4 l-0.24 0.32 c-0.08 0.04 -0.16 0.12 -0.2 0.2 l-0.4 0.48 c-0.04 0 -0.04 0.04 -0.08 0.08 c-0.08 0.12 -0.16 0.24 -0.28 0.32 c-0.12 0.12 -0.2 0.24 -0.28 0.36 l-0.32 0.36 l-0.24 0.32 l-0.32 0.36 c-0.04 0.08 -0.08 0.16 -0.16 0.2 l-0.28 0.4 l-0.36 0.4 l-0.36 0.48 l-0.28 0.32 c-0.12 0.16 -0.24 0.28 -0.36 0.48 l-0.16 0.16 c-0.12 0.12 -0.2 0.24 -0.28 0.36 l-0.28 0.32 l-0.36 0.48 c-0.12 0.08 -0.2 0.2 -0.32 0.32 l-0.36 0.48 c-0.08 0.08 -0.16 0.16 -0.2 0.24 l-0.28 0.36 c-0.08 0.04 -0.12 0.12 -0.2 0.2 l-0.28 0.36 l-0.16 0.2 c-0.12 0.16 -0.24 0.24 -0.32 0.4 l-0.36 0.4 l0 0.04 l-0.04 0.04 c-0.2 0.28 -0.44 0.56 -0.72 0.84 l0 0.08 c-0.08 0.04 -0.12 0.08 -0.16 0.16 c-0.04 0.04 -0.08 0.12 -0.16 0.16 c-0.12 0.2 -0.28 0.36 -0.44 0.56 l-0.36 0.44 c-0.16 0.2 -0.36 0.4 -0.52 0.64 l-0.28 0.32 l-0.24 0.32 l-0.16 0.2 l-0.44 0.48 c-0.08 0.16 -0.2 0.24 -0.28 0.36 c-0.12 0.12 -0.2 0.24 -0.28 0.36 c-0.08 0.08 -0.16 0.16 -0.2 0.24 c-0.12 0.12 -0.24 0.28 -0.4 0.4 l-0.4 0.52 c-0.08 0.08 -0.12 0.16 -0.2 0.2 l-0.24 0.28 l0 0.04 l-0.44 0.44 l-0.52 0.56 c-0.08 0.04 -0.12 0.16 -0.2 0.2 c-0.12 0.04 -0.16 0.16 -0.24 0.2 c-0.04 0 -0.04 0.04 -0.04 0.04 l-0.4 0.36 c-0.16 0.12 -0.28 0.24 -0.44 0.32 l-0.32 0.24 c-0.04 0.04 -0.08 0.08 -0.16 0.08 c-0.24 0.2 -0.52 0.32 -0.8 0.44 l-0.32 0.16 c-0.2 0.08 -0.4 0.12 -0.6 0.16 c-0.24 0.08 -0.52 0.08 -0.8 0.08 c-0.12 0 -0.24 -0.04 -0.36 -0.08 c-0.08 0 -0.16 0 -0.24 -0.04 c-0.12 -0.04 -0.24 -0.12 -0.36 -0.2 c-0.08 -0.12 -0.16 -0.28 -0.16 -0.4 s0.04 -0.24 0.12 -0.36 c0.12 -0.16 0.28 -0.24 0.48 -0.32 l0.36 -0.12 l0.24 0 c0.16 -0.04 0.36 -0.08 0.52 -0.08 l0.36 -0.08 c0.2 -0.08 0.44 -0.12 0.68 -0.24 c0.12 -0.04 0.28 -0.08 0.4 -0.16 l0.36 -0.16 c0.08 -0.08 0.16 -0.12 0.24 -0.16 c0.08 -0.08 0.16 -0.12 0.24 -0.16 l0.4 -0.24 c0.12 -0.04 0.2 -0.12 0.28 -0.16 l0.44 -0.36 l0.36 -0.24 l0.2 -0.16 c0.12 -0.08 0.2 -0.2 0.32 -0.24 c0 -0.04 0.04 -0.04 0.04 -0.08 c0.16 -0.12 0.32 -0.24 0.48 -0.4 l0.48 -0.52 c0.08 -0.04 0.12 -0.12 0.2 -0.2 l0.36 -0.4 c0.08 -0.08 0.16 -0.16 0.2 -0.28 l0.24 -0.24 l0.36 -0.44 l0.24 -0.32 l0.16 -0.2 l0.2 -0.28 l0.52 -0.68 l0.28 -0.32 l0.2 -0.2 c0 -0.08 0.04 -0.16 0.08 -0.2 l0.24 -0.2 c0.28 -0.36 0.56 -0.72 0.88 -1.04 c0.08 -0.08 0.12 -0.16 0.2 -0.2 l0.52 -0.68 l0.16 -0.2 l0.36 -0.44 l0.28 -0.32 l0.12 -0.16 c0.08 -0.16 0.24 -0.28 0.32 -0.4 l0.52 -0.68 l0.12 -0.16 c0.12 -0.08 0.2 -0.2 0.28 -0.32 l0.32 -0.4 c0.08 -0.08 0.12 -0.2 0.2 -0.24 l0.08 -0.08 c0.04 -0.12 0.12 -0.2 0.2 -0.28 c0.12 -0.12 0.2 -0.24 0.28 -0.36 l0.28 -0.32 c0.12 -0.16 0.24 -0.36 0.4 -0.48 l0.36 -0.48 c0.08 -0.08 0.12 -0.16 0.16 -0.24 c0.08 -0.08 0.16 -0.12 0.2 -0.2 l0.48 -0.56 l0.36 -0.48 c0.08 -0.04 0.12 -0.12 0.16 -0.16 c0.12 -0.16 0.28 -0.28 0.4 -0.48 l0.12 -0.08 l0.2 -0.28 l0.2 -0.2 l0.44 -0.48 c0.12 -0.2 0.28 -0.32 0.4 -0.52 c0.04 -0.08 0.12 -0.12 0.2 -0.2 c0.12 -0.2 0.28 -0.32 0.44 -0.52 l1 -1.04 l0.4 -0.28 c0 -0.04 0.04 -0.04 0.04 -0.08 l-0.08 0 l0 -0.04 c-0.16 -0.08 -0.36 -0.08 -0.52 -0.12 c-0.08 0 -0.16 0 -0.24 -0.04 l-0.88 0 l-0.84 0.08 c-0.16 0 -0.36 0.04 -0.52 0.04 l-0.52 0.12 c-0.16 0 -0.32 0.04 -0.48 0.08 l-0.76 0.2 c-0.08 0.04 -0.16 0.04 -0.2 0.04 c-0.28 0.12 -0.6 0.2 -0.88 0.28 l-0.76 0.32 l-0.52 0.24 c-0.12 0.04 -0.24 0.12 -0.36 0.2 c-0.12 0.04 -0.24 0.16 -0.36 0.16 c-0.12 0.12 -0.32 0.2 -0.44 0.32 l-0.24 0.12 c-0.12 0.12 -0.28 0.24 -0.44 0.32 l-0.44 0.36 l-0.32 0.24 c-0.04 0.04 -0.04 0.04 -0.08 0.04 l-0.08 0.12 l-0.24 0.2 s-0.04 0 -0.04 0.04 l-0.4 0.4 c-0.16 0.16 -0.28 0.36 -0.4 0.56 c-0.12 0.12 -0.2 0.28 -0.28 0.44 c-0.08 0.08 -0.12 0.16 -0.16 0.28 c-0.08 0.12 -0.12 0.28 -0.16 0.44 c-0.04 0.04 -0.08 0.12 -0.08 0.2 c-0.04 0.04 -0.08 0.12 -0.04 0.2 c-0.12 0.12 -0.08 0.28 -0.12 0.4 c-0.04 0.08 -0.04 0.12 -0.04 0.2 c0 0.16 -0.04 0.32 -0.04 0.44 l0 0.2 c0 0.12 0.04 0.24 0.04 0.36 l0 0.2 c0 0.12 0.04 0.24 0.04 0.36 c0 0.2 0.04 0.4 0.04 0.6 c0 0.08 0.04 0.2 0.04 0.28 c-0.04 0.2 0 0.36 -0.04 0.56 c-0.04 0.24 -0.08 0.4 -0.24 0.56 c-0.16 0.28 -0.44 0.44 -0.72 0.44 c-0.16 0 -0.36 -0.08 -0.48 -0.2 c-0.24 -0.16 -0.36 -0.4 -0.44 -0.68 c-0.04 -0.16 -0.08 -0.36 -0.08 -0.52 c-0.04 -0.16 0 -0.28 0 -0.44 c0 -0.12 0.04 -0.24 0.04 -0.4 l0.08 -0.4 l0.08 -0.28 l0.08 -0.32 l0.2 -0.56 c0.08 -0.2 0.12 -0.4 0.2 -0.56 l0.12 -0.24 l0 -0.04 c0.04 -0.12 0.12 -0.24 0.2 -0.36 c0 -0.08 0.04 -0.16 0.12 -0.24 l0.28 -0.56 l0.24 -0.36 c0.12 -0.2 0.28 -0.4 0.44 -0.6 l0.6 -0.64 l0.2 -0.16 c0 -0.04 0.04 -0.04 0.04 -0.08 c0.12 -0.16 0.28 -0.32 0.44 -0.4 l0.28 -0.24 l0.2 -0.12 l0.04 -0.04 l0.4 -0.32 l0.04 0 l0.52 -0.32 c0.08 -0.08 0.2 -0.12 0.32 -0.2 c0.04 0 0.04 -0.04 0.04 -0.04 c0.12 0 0.2 -0.08 0.24 -0.12 c0.12 -0.08 0.24 -0.12 0.36 -0.16 c0.2 -0.12 0.4 -0.24 0.64 -0.32 c0.2 -0.12 0.4 -0.16 0.6 -0.28 l0.32 -0.12 l0.48 -0.16 c0.16 -0.04 0.32 -0.12 0.52 -0.16 l0.32 -0.12 c0.16 0 0.32 -0.08 0.48 -0.12 c0.28 -0.04 0.56 -0.12 0.84 -0.2 c0.2 -0.04 0.4 -0.08 0.6 -0.08 l0.08 0 c0.2 -0.08 0.44 -0.08 0.64 -0.08 c0.12 0 0.2 -0.04 0.32 -0.04 l0.8 0 c0.64 -0.04 1.24 0.08 1.84 0.32 c0.24 0.08 0.52 0.2 0.76 0.4 c0.12 0.04 0.2 0.12 0.28 0.2 l0.32 0.28 c0.2 0.2 0.32 0.44 0.4 0.68 l0 0.24 c0 0.12 0.04 0.28 0.04 0.4 c0 0.08 0.04 0.16 0.04 0.24 c0.04 0.04 0.04 0.08 0.04 0.12 l0 0.36 c0 0.12 -0.04 0.28 -0.08 0.4 l0 0.24 l-0.12 0.4 c-0.04 0.28 -0.12 0.56 -0.2 0.84 c-0.04 0.08 -0.08 0.12 -0.08 0.16 l-0.24 0.52 l-0.36 0.76 c-0.16 0.24 -0.28 0.52 -0.4 0.76 l-0.44 0.76 c-0.12 0.2 -0.24 0.44 -0.36 0.6 l-0.16 0.32 l-0.32 0.56 c-0.08 0.12 -0.12 0.16 -0.16 0.28 l-0.32 0.52 l-0.24 0.44 l-0.24 0.36 c0 0.08 -0.04 0.12 -0.08 0.16 l-0.08 0.2 l-0.24 0.36 c-0.08 0.2 -0.24 0.4 -0.36 0.6 l-0.24 0.44 c-0.12 0.24 -0.24 0.48 -0.4 0.72 l-0.24 0.4 c-0.08 0.2 -0.2 0.4 -0.32 0.6 l-0.48 0.96 l-0.16 0.32 l0.12 -0.16 c0.08 -0.08 0.16 -0.16 0.2 -0.28 c0.2 -0.24 0.4 -0.44 0.56 -0.68 l0.28 -0.32 c0.08 -0.12 0.16 -0.24 0.28 -0.36 c0.12 -0.08 1.24 -1.44 1.28 -1.48 c0.2 -0.24 0.4 -0.44 0.52 -0.68 l0.16 -0.2 l0.4 -0.44 l0.24 -0.32 c0.04 -0.08 0.12 -0.12 0.16 -0.16 c0.08 -0.16 0.2 -0.28 0.28 -0.4 l0.52 -0.68 l0.16 -0.16 l0.28 -0.32 l0.32 -0.4 c0.04 -0.08 0.12 -0.2 0.2 -0.24 c0 -0.04 0.04 -0.04 0.04 -0.08 c0.04 -0.12 0.16 -0.2 0.24 -0.28 c0.08 -0.12 0.16 -0.24 0.28 -0.36 l0.24 -0.32 c0.16 -0.16 0.28 -0.36 0.4 -0.48 c0.16 -0.16 0.24 -0.32 0.4 -0.48 l0.16 -0.24 c0.04 -0.08 0.12 -0.12 0.2 -0.2 c0.12 -0.2 0.28 -0.4 0.44 -0.56 c0.12 -0.16 0.24 -0.32 0.4 -0.48 c0.04 -0.04 0.08 -0.12 0.16 -0.16 c0.12 -0.16 0.28 -0.28 0.4 -0.48 c0 -0.04 0.04 -0.04 0.08 -0.08 l0.24 -0.28 l0.16 -0.2 l0.44 -0.48 l0.44 -0.52 l0.16 -0.2 c0.16 -0.2 0.32 -0.32 0.44 -0.52 c0.32 -0.36 0.68 -0.68 1.04 -1.04 l0.36 -0.28 c0.12 -0.12 0.24 -0.16 0.36 -0.24 c0.12 -0.04 0.2 -0.08 0.28 -0.08 c0.04 0 0.08 -0.04 0.12 -0.04 l0.04 0 c0 -0.04 -0.04 -0.04 0 -0.08 c0 0 0.04 0 0.04 0.04 c0.04 0 0.08 0.04 0.16 0.04 c0.2 0.08 0.4 0.2 0.6 0.36 l0.32 0.28 c0.16 0.2 0.28 0.44 0.36 0.68 c0.04 0.08 0.04 0.16 0.04 0.24 l0 0.4 z M122.12 18.52 l0 0.04 l-0.04 0 c0 -0.04 0 -0.04 0.04 -0.04 z M120.56 17.64 l-0.04 0 l0 -0.04 c0.04 0 0.04 0.04 0.04 0.04 z M127.2 28.64 l0.16 0 c0.28 -0.04 0.52 0.08 0.76 0.16 s0.44 0.2 0.6 0.4 c0.12 0.12 0.2 0.28 0.24 0.44 l0.08 0.48 l0 0.36 c0 0.04 0.04 0.08 0.04 0.12 s0.04 0.04 0.08 0.04 c0 -0.04 0.04 -0.04 0.04 -0.08 l0.12 -0.2 l0.32 -0.52 c0.08 -0.2 0.24 -0.36 0.36 -0.56 c0.08 -0.2 0.24 -0.4 0.36 -0.56 c0.08 -0.08 0.16 -0.2 0.28 -0.24 c0.08 -0.08 0.24 -0.12 0.36 -0.12 c0.12 -0.04 0.24 0 0.4 -0.04 c0.08 0 0.16 -0.04 0.24 0 c0.16 0 0.36 0.08 0.52 0.12 c0.2 0.04 0.4 0.12 0.52 0.36 c0 0.08 0 0.12 -0.04 0.2 c-0.16 0.24 -0.32 0.56 -0.44 0.84 l-0.32 0.48 l-0.08 0.16 l-0.24 0.44 l-0.2 0.36 c-0.12 0.24 -0.24 0.48 -0.4 0.68 c-0.12 0.28 -0.28 0.56 -0.44 0.8 l-0.52 1 l-0.48 0.92 c-0.12 0.2 -0.2 0.44 -0.32 0.68 l-0.2 0.32 l-0.24 0.72 c-0.08 0.16 -0.12 0.32 -0.16 0.48 c0 0.08 -0.04 0.16 -0.04 0.2 c0 0.16 -0.04 0.32 -0.04 0.52 c0 0.12 0.04 0.28 0.08 0.4 l0.16 0.24 c0.04 0.08 0.08 0.12 0.16 0.16 s0.12 0.08 0.24 0.08 s0.28 0 0.4 -0.04 c0.08 0 0.16 -0.04 0.24 -0.08 c0.2 -0.08 0.36 -0.24 0.52 -0.36 c0.12 -0.16 0.28 -0.28 0.44 -0.44 c0.24 -0.32 0.52 -0.6 0.76 -0.96 l0.36 -0.44 c0.08 -0.16 0.2 -0.24 0.32 -0.4 l0.16 -0.2 c0.2 -0.2 0.32 -0.44 0.52 -0.64 l0.36 -0.52 l0.44 -0.6 l0.56 -0.76 c0.04 -0.08 0.16 -0.16 0.2 -0.28 c0 0 0.04 -0.04 0.08 0 s0.08 0.04 0.12 0.04 s0.08 0 0.12 0.04 l0.04 0.04 c0 0.08 0 0.16 -0.04 0.24 c-0.04 0.16 -0.12 0.28 -0.24 0.4 c-0.16 0.24 -0.32 0.48 -0.52 0.72 c-0.16 0.24 -0.32 0.52 -0.52 0.76 l-0.52 0.76 l-0.48 0.64 l-0.12 0.2 l-0.6 0.68 l-0.68 0.72 c-0.16 0.16 -0.28 0.32 -0.44 0.44 c-0.28 0.28 -0.52 0.52 -0.84 0.76 l-0.16 0.08 l-0.44 0.24 c-0.2 0.12 -0.4 0.2 -0.6 0.24 c-0.12 0 -0.24 0.04 -0.36 0.04 s-0.24 -0.04 -0.36 -0.08 s-0.24 -0.08 -0.36 -0.08 l-0.2 -0.12 c-0.12 -0.04 -0.2 -0.12 -0.28 -0.2 c-0.28 -0.2 -0.44 -0.48 -0.56 -0.76 c-0.16 -0.28 -0.2 -0.56 -0.16 -0.88 l0 -0.52 c0.04 -0.08 0.08 -0.08 0.04 -0.16 l-0.08 0.08 l-0.52 0.56 c-0.24 0.32 -0.56 0.6 -0.84 0.92 c-0.12 0.08 -0.24 0.2 -0.4 0.28 c-0.08 0.08 -0.16 0.16 -0.24 0.2 c-0.24 0.16 -0.48 0.32 -0.76 0.44 c-0.28 0.16 -0.64 0.32 -0.96 0.44 c-0.12 0.04 -0.2 0.04 -0.32 0.04 l-0.32 0 c-0.24 0 -0.48 -0.04 -0.68 -0.12 c-0.04 0 -0.12 0 -0.16 -0.04 c-0.2 -0.04 -0.36 -0.16 -0.52 -0.28 c-0.2 -0.12 -0.36 -0.32 -0.52 -0.56 l-0.12 -0.24 c-0.08 -0.2 -0.16 -0.4 -0.2 -0.6 c-0.04 -0.16 -0.08 -0.32 -0.08 -0.44 c-0.04 -0.12 0 -0.24 0 -0.36 c-0.04 -0.08 0 -0.16 -0.04 -0.24 c0.04 -0.12 0 -0.24 0.04 -0.36 l0 -0.08 c0 -0.2 0.08 -0.4 0.08 -0.6 l0.16 -0.6 c0 -0.08 0.04 -0.2 0.08 -0.32 c0.08 -0.24 0.16 -0.48 0.28 -0.72 l0.16 -0.4 l0.24 -0.48 c0.12 -0.12 0.12 -0.28 0.24 -0.4 l0.04 -0.04 c0 -0.12 0.12 -0.2 0.16 -0.32 l0.24 -0.36 l0.52 -0.72 l0.44 -0.52 l0.32 -0.36 c0.08 -0.12 0.2 -0.2 0.32 -0.28 c0.16 -0.2 0.4 -0.36 0.56 -0.52 l0.56 -0.4 c0.2 -0.08 0.32 -0.2 0.52 -0.28 l0.28 -0.12 c0.2 -0.12 0.44 -0.2 0.64 -0.28 s0.4 -0.12 0.56 -0.2 l0.24 0 c0.08 -0.04 0.2 -0.04 0.32 -0.04 c0.2 -0.04 0.4 -0.04 0.6 -0.04 z M128.52 31.28 l0 -0.72 c0 -0.16 -0.04 -0.28 -0.04 -0.44 c-0.08 -0.2 -0.16 -0.36 -0.28 -0.52 c-0.08 -0.08 -0.16 -0.16 -0.24 -0.2 c-0.04 0 -0.12 0 -0.16 -0.04 c-0.08 0 -0.16 -0.04 -0.24 -0.04 c-0.2 -0.04 -0.36 0 -0.52 0.04 c-0.2 0.04 -0.4 0.12 -0.64 0.24 c-0.32 0.16 -0.64 0.44 -0.88 0.68 l-0.28 0.32 l-0.72 0.76 s-0.04 0 -0.04 0.04 l-0.36 0.44 c-0.16 0.16 -0.28 0.36 -0.44 0.56 c-0.2 0.24 -0.4 0.56 -0.6 0.84 l-0.28 0.48 c-0.16 0.2 -0.28 0.4 -0.4 0.64 c-0.16 0.28 -0.28 0.56 -0.4 0.84 c-0.04 0.16 -0.12 0.32 -0.16 0.52 l-0.12 0.4 c0 0.12 -0.08 0.24 -0.04 0.4 c-0.04 0.12 -0.08 0.24 -0.08 0.36 c0 0.24 0 0.48 0.04 0.76 c0.04 0.2 0.08 0.4 0.16 0.6 c0.08 0.24 0.24 0.44 0.44 0.6 c0.16 0.08 0.32 0.16 0.48 0.2 c0.2 0 0.36 0 0.56 -0.08 c0 -0.04 0.04 0 0.08 -0.04 c0.04 0 0.12 0 0.16 -0.04 c0.28 -0.2 0.56 -0.32 0.84 -0.56 c0.24 -0.2 0.52 -0.36 0.72 -0.6 l0.36 -0.4 l0.48 -0.64 c0.08 -0.12 0.16 -0.28 0.28 -0.4 l0.36 -0.56 l0.44 -0.76 l0.36 -0.8 l0.36 -0.68 c0 -0.04 0 -0.08 0.04 -0.12 c0.08 -0.12 0.16 -0.24 0.2 -0.36 c0.16 -0.24 0.28 -0.48 0.4 -0.76 c0.08 -0.16 0.08 -0.32 0.16 -0.44 c-0.04 -0.2 0.04 -0.36 0 -0.52 z M144.84 32.84 l0.04 0.04 c0 0.08 0 0.16 -0.04 0.24 c-0.04 0.16 -0.12 0.28 -0.2 0.4 c-0.2 0.24 -0.36 0.48 -0.52 0.72 l-0.56 0.76 l-0.52 0.76 l-0.48 0.64 l-0.12 0.2 l-0.6 0.68 l-0.68 0.72 c-0.12 0.16 -0.28 0.32 -0.44 0.44 c-0.28 0.28 -0.52 0.52 -0.84 0.76 l-0.16 0.08 l-0.44 0.24 c-0.2 0.12 -0.4 0.2 -0.6 0.24 c-0.12 0 -0.24 0.04 -0.36 0.04 s-0.24 -0.04 -0.36 -0.08 s-0.24 -0.08 -0.36 -0.08 l-0.2 -0.12 l-0.28 -0.2 c-0.28 -0.2 -0.44 -0.48 -0.56 -0.76 c-0.48 -1.48 0.92 -4.72 2.36 -7.16 c-0.88 0.28 -1.96 0.28 -2.8 -0.04 c-0.12 0.16 -0.24 0.36 -0.4 0.52 l-0.36 0.52 l-0.44 0.6 l-0.56 0.76 c-0.04 0.08 -0.16 0.16 -0.2 0.28 c-0.04 0.04 -0.08 0.04 -0.08 0 c-0.04 -0.04 -0.08 -0.04 -0.12 -0.04 s-0.08 0 -0.12 -0.04 l-0.04 -0.04 c0 -0.08 0 -0.16 0.04 -0.24 c0.04 -0.16 0.12 -0.28 0.2 -0.4 c0.2 -0.24 0.36 -0.48 0.52 -0.72 l0.56 -0.76 l0.48 -0.72 c-0.56 -0.4 -0.96 -1 -0.96 -1.88 c0 -0.72 0.32 -1.48 0.88 -1.96 l0.04 0 l0.08 -0.08 c0.08 -0.08 0.24 -0.12 0.36 -0.12 c0.4 -0.12 1.12 -0.08 1.16 0.6 c0.04 0.16 0 0.28 0 0.4 c-0.24 1.04 -0.52 3.04 0.76 3.04 c1.2 0 2.2 -1.72 3.12 -2.2 c0.32 -0.08 0.6 -0.08 0.92 -0.04 c0.2 0.04 0.48 0.04 0.64 0.16 c0.08 0.08 0.12 0.16 0.16 0.24 l-0.08 0.08 l-0.24 0.44 l-0.2 0.36 l-1.2 1.84 c-0.12 0.28 -0.28 0.56 -0.44 0.8 c-0.2 0.32 -0.36 0.68 -0.52 1 l-0.48 0.92 c-0.12 0.2 -0.2 0.44 -0.32 0.68 l-0.2 0.32 l-0.24 0.72 c-0.08 0.16 -0.12 0.32 -0.16 0.48 c0 0.08 -0.04 0.12 -0.04 0.2 c0 0.16 -0.04 0.32 -0.04 0.48 s0.08 0.32 0.08 0.44 l0.16 0.24 c0.04 0.04 0.08 0.12 0.16 0.16 s0.16 0.08 0.24 0.08 c0.12 0 0.28 0 0.4 -0.04 c0.08 0 0.16 -0.04 0.24 -0.08 c0.2 -0.08 0.36 -0.24 0.52 -0.36 l0.44 -0.44 c0.24 -0.32 0.52 -0.6 0.76 -0.96 l0.36 -0.44 c0.12 -0.16 0.24 -0.24 0.32 -0.4 l0.16 -0.2 c0.2 -0.2 0.32 -0.44 0.52 -0.64 l0.36 -0.52 l0.44 -0.6 l0.56 -0.76 c0.04 -0.08 0.16 -0.16 0.2 -0.28 c0.04 -0.04 0.08 -0.04 0.08 0 c0.04 0.04 0.08 0.04 0.12 0.04 s0.08 0 0.12 0.04 z M142.76000000000002 38.24 c-0.28 -1.72 2.12 -6.68 4.48 -11.04 l-0.44 0 c-0.48 -0.04 -0.92 0 -1.36 0 c-0.16 0 -0.28 -0.08 -0.4 -0.12 c-0.08 -0.08 -0.28 -0.16 0.08 -0.36 c0.04 -0.04 0.12 -0.08 0.16 -0.08 c0.12 -0.04 0.24 -0.04 0.36 -0.04 c0.28 0 0.6 -0.04 0.92 0 c0.28 0 0.6 -0.04 0.88 0 c0 0 0.08 0.04 0.12 0.04 c1.48 -2.72 2.88 -5.12 3.44 -6.2 l0.12 -0.2 c0.08 -0.16 0.24 -0.32 0.32 -0.52 l0.36 -0.56 c0.08 -0.2 0.24 -0.4 0.36 -0.56 c0.08 -0.08 0.16 -0.2 0.28 -0.24 c0.08 -0.08 0.24 -0.12 0.36 -0.12 c0.12 -0.04 0.28 0 0.4 -0.04 c0.08 -0.04 0.16 -0.04 0.24 0 c0.16 0 0.36 0.08 0.52 0.12 c0.2 0.04 0.4 0.12 0.52 0.36 c0 0.08 0 0.12 -0.04 0.16 l-0.44 0.88 l-0.32 0.48 l-0.08 0.16 l-0.24 0.44 l-0.2 0.36 l-0.4 0.68 c-0.08 0.12 -1.24 2.36 -2.56 4.76 c0.08 0 0.16 0.04 0.24 0.04 l0.56 0 c0.48 0.04 0.92 0 1.36 0 c0.16 0 0.28 0.08 0.4 0.12 c0.32 0.2 0 0.44 -0.24 0.44 c-0.12 0.04 -0.24 0.04 -0.36 0.04 c-0.28 0 -0.6 0.04 -0.92 0 c-0.28 0 -0.6 0.04 -0.88 0 l-0.48 0 l-3 5.52 c-0.2 0.32 -0.36 0.68 -0.52 1 l-0.48 0.92 c-0.12 0.2 -0.2 0.44 -0.32 0.68 l-0.2 0.32 l-0.24 0.72 c-0.08 0.16 -0.12 0.32 -0.16 0.48 c0 0.08 -0.04 0.12 -0.04 0.2 c0 0.16 -0.04 0.32 -0.04 0.48 s0.08 0.32 0.08 0.44 l0.16 0.24 c0.04 0.04 0.08 0.12 0.16 0.16 s0.16 0.08 0.24 0.08 c0.12 0 0.28 0 0.4 -0.04 c0.08 0 0.16 -0.04 0.24 -0.08 c0.2 -0.08 0.36 -0.24 0.52 -0.36 l0.44 -0.44 c0.24 -0.32 0.52 -0.6 0.76 -0.96 l0.36 -0.44 c0.12 -0.16 0.24 -0.24 0.32 -0.4 l0.16 -0.2 c0.2 -0.2 0.32 -0.44 0.52 -0.64 l0.36 -0.52 l0.44 -0.6 l0.56 -0.76 c0.04 -0.08 0.16 -0.16 0.2 -0.28 c0.04 -0.04 0.08 -0.04 0.08 0 c0.04 0.04 0.08 0.04 0.12 0.04 s0.08 0 0.12 0.04 l0.04 0.04 c0 0.08 0 0.16 -0.04 0.24 c-0.04 0.16 -0.12 0.28 -0.2 0.4 c-0.2 0.24 -0.36 0.48 -0.52 0.72 l-0.56 0.76 l-0.52 0.76 l-0.48 0.64 l-0.12 0.2 l-0.6 0.68 l-0.68 0.72 c-0.12 0.16 -0.28 0.32 -0.44 0.44 c-0.28 0.28 -0.52 0.52 -0.84 0.76 l-0.16 0.08 l-0.44 0.24 c-0.2 0.12 -0.4 0.2 -0.6 0.24 c-0.12 0 -0.24 0.04 -0.36 0.04 s-0.24 -0.04 -0.36 -0.08 s-0.24 -0.08 -0.36 -0.08 l-0.2 -0.12 l-0.28 -0.2 c-0.28 -0.2 -0.6 -0.8 -0.64 -1.08 z" fill="#393E46"></path></g></svg>